HIERARCHY
ROOT ROOT
{
	OFFSET 0.000000 56.020000 -5.659234
	CHANNELS 6 Xposition Yposition Zposition Xrotation Yrotation Zrotation 
	JOINT C_spine0001_bind_JNT
	{
		OFFSET 0.000000 1.618999 0.000000
		CHANNELS 3 Xrotation Yrotation Zrotation
		JOINT C_spine0002_bind_JNT
		{
			OFFSET 0.000000 4.942001 0.000001
			CHANNELS 3 Xrotation Yrotation Zrotation
			JOINT C_spine0003_bind_JNT
			{
				OFFSET 0.000000 4.942001 -0.000000
				CHANNELS 3 Xrotation Yrotation Zrotation
				JOINT C_neck0001_bind_JNT
				{
					OFFSET 0.000000 17.026009 -0.000000
					CHANNELS 3 Xrotation Yrotation Zrotation
					JOINT C_neck0002_bind_JNT
					{
						OFFSET 0.000000 3.249985 0.000000
						CHANNELS 3 Xrotation Yrotation Zrotation
						JOINT C_head_bind_JNT
						{
							OFFSET 0.000000 5.278008 0.000000
							CHANNELS 3 Xrotation Yrotation Zrotation
							End Site
							{
								OFFSET 0.000000 0.000000 0.000000
							}
						}
					}
				}
				JOINT L_clavicle_bind_JNT
				{
					OFFSET 4.590000 12.067001 0.834000
					CHANNELS 3 Xrotation Yrotation Zrotation
					JOINT L_armUpper0001_bind_JNT
					{
						OFFSET 7.812635 0.512001 -3.452945
						CHANNELS 3 Xrotation Yrotation Zrotation
						JOINT L_armLower0001_bind_JNT
						{
							OFFSET 15.265892 -6.552116 -0.058157
							CHANNELS 3 Xrotation Yrotation Zrotation
							JOINT L_hand0001_bind_JNT
							{
								OFFSET 14.747667 -6.369995 5.049225
								CHANNELS 3 Xrotation Yrotation Zrotation
								End Site
								{
									OFFSET 0.000000 0.000000 0.000000
								}
							}
						}
					}
				}
				JOINT R_clavicle_bind_JNT
				{
					OFFSET -4.590000 12.067001 0.834000
					CHANNELS 3 Xrotation Yrotation Zrotation
					JOINT R_armUpper0001_bind_JNT
					{
						OFFSET -7.812635 0.512001 -3.452945
						CHANNELS 3 Xrotation Yrotation Zrotation
						JOINT R_armLower0001_bind_JNT
						{
							OFFSET -15.265890 -6.552124 -0.058160
							CHANNELS 3 Xrotation Yrotation Zrotation
							JOINT R_hand0001_bind_JNT
							{
								OFFSET -14.746784 -6.369629 5.048937
								CHANNELS 3 Xrotation Yrotation Zrotation
								End Site
								{
									OFFSET 0.000000 0.000000 0.000000
								}
							}
						}
					}
				}
			}
		}
	}
	JOINT C_pelvis0001_bind_JNT
	{
		OFFSET -0.000000 0.000000 0.000000
		CHANNELS 3 Xrotation Yrotation Zrotation
		JOINT L_legUpper0001_bind_JNT
		{
			OFFSET 6.599999 -6.027000 0.539000
			CHANNELS 3 Xrotation Yrotation Zrotation
			JOINT L_legLower0001_bind_JNT
			{
				OFFSET -0.140713 -19.187443 0.040261
				CHANNELS 3 Xrotation Yrotation Zrotation
				JOINT L_foot0001_bind_JNT
				{
					OFFSET -0.132215 -18.028637 -1.138370
					CHANNELS 3 Xrotation Yrotation Zrotation
					JOINT L_foot0002_bind_JNT
					{
						OFFSET 0.007014 -4.693133 9.886524
						CHANNELS 3 Xrotation Yrotation Zrotation
						End Site
						{
							OFFSET 0.000000 0.000000 0.000000
						}
					}
				}
			}
		}
		JOINT R_legUpper0001_bind_JNT
		{
			OFFSET -6.599999 -6.027000 0.539000
			CHANNELS 3 Xrotation Yrotation Zrotation
			JOINT R_legLower0001_bind_JNT
			{
				OFFSET 0.140710 -19.187164 0.040550
				CHANNELS 3 Xrotation Yrotation Zrotation
				JOINT R_foot0001_bind_JNT
				{
					OFFSET 0.132215 -18.028633 -1.138362
					CHANNELS 3 Xrotation Yrotation Zrotation
					JOINT R_foot0002_bind_JNT
					{
						OFFSET -0.007014 -4.693128 9.886505
						CHANNELS 3 Xrotation Yrotation Zrotation
						End Site
						{
							OFFSET 0.000000 0.000000 0.000000
						}
					}
				}
			}
		}
	}
}
MOTION
Frames: 13
Frame Time: 0.033333
-60.636139 49.068172 100.194824 0.034206 -48.688808 0.006259 6.237955 13.855446 -1.524124 -1.988099 1.324694 0.509520 6.591326 2.088793 1.632987 8.290965 -0.911479 0.452215 -0.121856 0.081481 0.168872 -21.083002 -2.539932 0.459392 7.978001 -3.348998 7.117841 -13.915561 0.194532 -73.657661 -8.680588 24.577307 4.338020 0.509356 -19.640451 -18.561510 12.301832 -0.702174 -7.332564 -21.054407 3.388966 69.157410 8.150862 -22.822918 -14.409886 5.314743 26.240044 4.096472 2.736778 11.285370 -0.695749 -10.708200 24.705038 4.084574 -9.130007 -0.953803 0.126941 -2.690717 -13.613361 -0.488657 -1.210260 -2.086226 -0.733027 -1.143814 -4.728971 1.061300 12.053511 -3.636572 0.755724 -8.923556 2.288307 0.002582 -5.750314 0.259315 -0.791651
-60.965961 49.087929 101.019722 0.041802 -48.708973 0.001683 6.203378 12.311164 -1.321956 -1.975938 1.445255 0.137243 6.625426 2.245650 1.327926 8.205936 -0.826422 0.365907 -0.055232 0.076857 0.298502 -21.415791 -2.452676 0.446133 7.936665 -2.974555 7.196752 -15.191684 -1.213759 -73.300140 -8.887132 24.555019 3.945436 1.296361 -19.615091 -18.019629 11.927498 -0.048501 -7.701138 -19.008926 1.405534 69.861145 8.235912 -24.073845 -14.281944 4.806644 26.362043 3.725994 2.817775 9.920303 -0.146865 -8.685844 23.988503 2.774085 -10.046130 0.304280 -0.237623 -3.480868 -12.471472 -0.885788 -1.123331 -1.797672 -0.242348 -0.230418 -5.606437 -0.271131 16.641371 -2.665209 0.655461 -9.842219 3.056262 0.812298 -8.842979 0.537272 -1.128372
-61.374096 49.204849 101.828293 0.030470 -48.928818 -0.003275 6.452652 10.954659 -1.159001 -2.367619 1.452052 -0.004515 6.621427 2.368223 0.755218 8.229151 -0.585411 0.414764 0.037424 0.071024 0.329713 -21.396158 -2.327894 0.523834 8.222173 -2.330371 7.204329 -16.247568 -2.359377 -73.078789 -9.557272 24.119581 3.962587 1.140877 -20.175144 -18.123014 11.874976 0.788283 -7.984341 -17.374432 -0.308172 70.475960 8.922396 -25.582338 -14.110957 4.376891 26.167559 3.827748 2.869694 8.618657 0.531980 -6.542193 23.357748 2.014483 -11.232767 1.651520 -1.081429 -4.335158 -11.764063 -1.150601 -0.827729 -1.918068 -0.294200 -4.214345 -6.671658 -2.070077 24.256456 -1.996144 0.178306 -8.966373 4.346611 1.944270 -13.857969 0.876487 -1.913124
-61.626019 49.306458 102.629585 0.015450 -49.112198 -0.011965 6.547029 9.386021 -0.862640 -2.213063 1.469575 -0.314348 6.861607 2.774478 0.461695 8.094375 -0.585839 0.327453 0.054042 0.013474 0.476970 -21.921692 -1.856457 0.283392 8.096239 -2.225103 7.148342 -17.629271 -3.428613 -72.555046 -10.625109 23.290350 3.226248 1.752849 -20.408754 -17.499886 11.270970 1.128276 -8.186848 -16.142027 -1.663034 70.952843 9.820306 -27.134487 -14.015593 4.233310 26.025690 3.394239 2.825533 7.042812 0.910706 -4.177235 23.020309 0.914553 -12.798379 2.789253 -1.199813 -4.645417 -11.261291 -1.577443 -1.302897 -1.679221 -0.179578 -9.335192 -8.190129 -4.084669 33.527721 -0.709005 -0.525287 -5.243580 6.213439 2.745810 -22.442144 1.413145 -2.915346
-61.803410 49.309353 103.301094 0.025624 -49.407063 -0.005627 6.676198 7.939538 -0.690764 -2.174015 1.624391 -0.318195 7.046697 2.964579 0.177863 7.809634 -0.461308 0.232221 0.173624 0.062903 0.370308 -22.072506 -1.652208 0.213460 8.290723 -1.957389 7.447783 -18.978466 -4.208866 -72.533035 -11.841590 22.440434 3.124274 1.866210 -20.845537 -17.166986 11.134824 1.323075 -8.502891 -15.493930 -2.500845 71.550339 10.184679 -28.370733 -14.408724 3.828980 25.651657 3.699158 2.557690 5.608576 1.387512 -1.832629 22.853409 -0.085759 -13.798742 3.662580 -1.611190 -5.272193 -10.993960 -1.760516 -1.534249 -1.609873 0.031565 -14.154828 -9.732452 -5.621247 41.337383 -0.231123 -1.797891 -0.040284 8.513931 2.101938 -30.478424 1.546942 -3.044768
-62.036922 49.158764 103.848206 0.019180 -49.893383 -0.013253 6.705546 6.906956 -0.599352 -1.858608 1.651348 -0.411496 7.145605 3.284629 0.090052 7.770661 -0.306980 0.030038 -0.066302 -0.163333 0.523438 -22.494024 -0.985073 0.054258 8.350664 -2.136233 8.319504 -20.543779 -4.784072 -72.521828 -12.260282 21.815525 2.274141 1.718040 -21.181477 -16.791132 11.324552 1.117807 -9.202693 -15.439802 -3.111851 72.346809 10.229537 -29.187931 -14.829692 4.102697 25.473421 3.650192 2.328902 4.573297 1.890014 0.147147 22.749428 -1.252292 -14.692542 4.123139 -1.560084 -6.356341 -10.299935 -1.936548 -1.084836 -1.574452 0.081435 -18.737600 -11.798973 -7.726545 47.198730 0.372058 -3.784601 6.334769 11.191416 0.350709 -36.875999 1.584011 -2.705659
-62.353672 48.900440 104.207527 0.009720 -50.747768 -0.022506 6.732930 6.394056 -0.622337 -1.667773 1.643784 -0.383217 7.457001 3.348420 0.019399 7.481430 -0.211352 -0.001223 -0.005245 -0.093090 0.512636 -22.854866 -0.962536 -0.239487 8.240360 -1.771519 9.141277 -22.294249 -5.640041 -72.742027 -12.508253 21.184399 1.878862 1.645024 -20.931139 -16.847260 11.379675 0.837288 -10.101258 -15.537540 -3.164800 73.070694 10.468019 -29.276119 -14.812607 3.514795 25.066042 4.119702 1.914133 3.917005 2.180862 1.792314 22.756010 -1.803497 -14.923405 4.996680 -1.646415 -7.503705 -10.127654 -2.414538 -0.927503 -1.240433 0.374738 -21.334642 -13.308561 -8.567024 50.550125 0.028271 -5.456160 9.748855 12.501905 -1.622076 -39.963703 1.627143 -1.888617
-62.570610 48.787281 104.656593 0.015508 -51.566200 -0.023786 6.991066 5.807244 -0.745261 -1.789803 1.692627 -0.331399 7.275267 3.361117 0.031626 7.725204 -0.102387 0.031158 -0.034512 -0.235985 0.489554 -22.662420 -1.158884 -0.237463 8.392855 -1.607289 9.492104 -24.060135 -6.312752 -72.513885 -12.680798 20.884199 1.395759 1.374789 -20.982330 -16.995865 11.492285 0.835126 -10.759924 -15.306766 -3.433470 73.576347 10.430742 -29.093555 -14.999706 3.290388 24.645914 4.515997 2.022993 3.621013 2.056629 3.217439 22.598030 -2.464643 -15.256547 5.517652 -1.450029 -8.597215 -9.369269 -2.536078 -0.786625 -1.432173 0.523852 -23.686491 -14.698426 -9.399297 52.184040 -0.066908 -6.189618 10.195521 11.805712 -2.368852 -38.805851 1.201171 -0.329552
-62.766487 48.827602 104.990845 0.025764 -52.351139 -0.027518 6.897327 5.377044 -0.738710 -1.539113 1.418560 -0.139338 7.407375 3.354528 0.125545 7.574924 -0.315210 -0.185072 0.048065 0.095142 0.453646 -22.567097 -0.895015 -0.320171 7.513565 -1.472044 8.658096 -24.769714 -6.838422 -71.744156 -12.764252 19.857611 1.009953 1.031542 -20.498138 -16.754827 10.950579 1.173182 -10.851696 -14.827985 -3.618862 73.085815 10.866624 -28.498669 -14.449820 2.889825 24.426964 4.586571 1.932547 3.556150 1.590178 3.956366 22.607300 -2.375227 -15.586659 5.890551 -1.317623 -8.731317 -8.719720 -2.636446 -1.088550 -1.524006 0.373065 -24.890821 -15.902993 -9.585780 51.961384 -0.372932 -5.877829 8.458272 11.120814 -2.324461 -34.245056 0.762294 0.567710
-63.138935 49.070129 105.388885 0.040644 -52.968876 0.000970 7.112602 4.902559 -0.618922 -1.822649 1.194572 0.019907 7.458979 3.090770 0.142251 7.757933 -0.060380 -0.076139 0.041806 0.038610 0.319413 -22.394814 -0.833657 -0.100648 6.994215 -1.287130 7.659277 -25.196419 -7.811680 -70.967888 -13.734488 18.795042 0.364017 0.096799 -20.243500 -16.327667 10.736042 1.698107 -10.169889 -14.405706 -3.712421 72.243614 10.793727 -27.556393 -14.394584 2.936544 24.097689 5.247470 2.511373 3.422797 0.413961 3.801961 23.266470 -1.304102 -16.277996 5.729412 -0.845390 -7.945888 -8.098067 -2.858999 -1.682094 -1.520325 0.266205 -25.908707 -15.075596 -9.145175 50.265911 0.063305 -3.651034 4.775709 9.621864 -1.714788 -27.538094 1.009089 0.647432
-63.646862 49.212189 105.855942 0.041835 -53.156712 -0.009170 7.239967 4.335910 -0.331814 -1.865297 0.991331 -0.021627 7.250694 2.920680 0.610928 7.811554 -0.047631 -0.336332 0.108232 -0.092704 0.365417 -22.256805 -0.236239 -0.313282 6.559879 -1.532881 6.599830 -25.229578 -8.119515 -70.514717 -14.647869 17.488035 -0.508878 -0.271470 -20.145191 -15.854890 10.163222 1.837754 -9.758037 -14.000181 -3.479916 71.589340 10.794749 -26.994898 -14.131107 3.105453 23.905621 5.569602 2.686578 3.288567 -0.521604 3.800340 23.403072 -0.587503 -16.640822 5.736612 -0.280881 -7.719228 -7.518977 -3.018302 -2.026198 -1.439719 0.129240 -25.354364 -14.229093 -8.109502 45.820351 0.161807 -1.293115 0.805775 8.570673 -0.754002 -19.243536 1.094643 0.445104
-64.221497 49.307632 106.266945 0.061256 -53.728401 0.006549 7.445680 4.473546 -0.138370 -1.976461 0.857426 0.098349 7.415368 2.649858 0.581671 7.547015 0.100874 -0.426745 -0.141298 0.093860 0.374928 -22.014843 -0.283059 -0.394056 5.818134 -1.827320 5.713866 -25.280457 -8.645692 -69.522476 -15.650927 16.586597 -2.031765 -0.753814 -20.231796 -15.480183 9.397533 2.127467 -8.991669 -13.763636 -3.310210 70.986595 10.794972 -26.855145 -13.688456 3.404431 23.647615 6.080705 3.079925 3.608867 -1.348444 3.531408 23.518906 0.277359 -17.071967 5.995163 -0.028621 -7.622377 -7.037720 -3.239776 -1.822948 -1.270458 0.091934 -24.395935 -13.378926 -7.008073 38.217381 0.456898 0.991023 -1.297258 7.070112 -0.004244 -11.135002 1.257699 0.007779
-65.044060 49.271412 106.714851 0.031234 -53.943783 -0.003450 7.532128 4.437697 0.185450 -2.043885 0.722000 0.020409 7.342162 2.473020 0.711100 7.674860 0.009329 -0.513271 0.054142 0.180892 0.309090 -22.227310 -0.181170 -0.518993 5.778008 -1.825010 5.289431 -25.468874 -9.034708 -69.212662 -16.480555 15.242606 -3.089114 -1.096231 -20.100418 -15.395185 9.395623 2.212016 -8.454462 -14.074293 -3.625767 70.819374 11.654134 -26.961445 -13.196588 3.687290 23.165697 5.901396 3.600387 3.771775 -1.433004 4.199153 23.126177 0.388051 -17.443446 6.187613 0.298279 -7.551103 -6.428963 -3.560617 -2.587743 -1.353605 -0.444505 -23.110849 -13.106675 -5.960415 28.864590 0.521383 1.382010 -1.893413 6.552190 1.024536 -5.681147 1.330372 0.156146
